<svg xmlns="http://www.w3.org/2000/svg" xmlns:xlink="http://www.w3.org/1999/xlink" id="visual" width="960" height="540" version="1.1" viewBox="0 0 960 540"><path fill="#fa7268" d="M0 370L22.8 361.7C45.7 353.3 91.3 336.7 137 327.5C182.7 318.3 228.3 316.7 274 329.7C319.7 342.7 365.3 370.3 411.2 381C457 391.7 503 385.3 548.8 382.7C594.7 380 640.3 381 686 374.3C731.7 367.7 777.3 353.3 823 356C868.7 358.7 914.3 378.3 937.2 388.2L960 398L960 541L937.2 541C914.3 541 868.7 541 823 541C777.3 541 731.7 541 686 541C640.3 541 594.7 541 548.8 541C503 541 457 541 411.2 541C365.3 541 319.7 541 274 541C228.3 541 182.7 541 137 541C91.3 541 45.7 541 22.8 541L0 541Z"/><path fill="#ef5f67" d="M0 427L22.8 419.5C45.7 412 91.3 397 137 390C182.7 383 228.3 384 274 384C319.7 384 365.3 383 411.2 388.5C457 394 503 406 548.8 405.7C594.7 405.3 640.3 392.7 686 389C731.7 385.3 777.3 390.7 823 394.7C868.7 398.7 914.3 401.3 937.2 402.7L960 404L960 541L937.2 541C914.3 541 868.7 541 823 541C777.3 541 731.7 541 686 541C640.3 541 594.7 541 548.8 541C503 541 457 541 411.2 541C365.3 541 319.7 541 274 541C228.3 541 182.7 541 137 541C91.3 541 45.7 541 22.8 541L0 541Z"/><path fill="#e34c67" d="M0 419L22.8 418.7C45.7 418.3 91.3 417.7 137 419C182.7 420.3 228.3 423.7 274 423.8C319.7 424 365.3 421 411.2 418.3C457 415.7 503 413.3 548.8 411.5C594.7 409.7 640.3 408.3 686 411.5C731.7 414.7 777.3 422.3 823 421.5C868.7 420.7 914.3 411.3 937.2 406.7L960 402L960 541L937.2 541C914.3 541 868.7 541 823 541C777.3 541 731.7 541 686 541C640.3 541 594.7 541 548.8 541C503 541 457 541 411.2 541C365.3 541 319.7 541 274 541C228.3 541 182.7 541 137 541C91.3 541 45.7 541 22.8 541L0 541Z"/><path fill="#d53867" d="M0 482L22.8 482.2C45.7 482.3 91.3 482.7 137 482.2C182.7 481.7 228.3 480.3 274 472.5C319.7 464.7 365.3 450.3 411.2 450.5C457 450.7 503 465.3 548.8 472.7C594.7 480 640.3 480 686 475.7C731.7 471.3 777.3 462.7 823 455C868.7 447.3 914.3 440.7 937.2 437.3L960 434L960 541L937.2 541C914.3 541 868.7 541 823 541C777.3 541 731.7 541 686 541C640.3 541 594.7 541 548.8 541C503 541 457 541 411.2 541C365.3 541 319.7 541 274 541C228.3 541 182.7 541 137 541C91.3 541 45.7 541 22.8 541L0 541Z"/><path fill="#c62368" d="M0 475L22.8 478.5C45.7 482 91.3 489 137 490.3C182.7 491.7 228.3 487.3 274 487.2C319.7 487 365.3 491 411.2 495.8C457 500.7 503 506.3 548.8 505.7C594.7 505 640.3 498 686 492.5C731.7 487 777.3 483 823 481.5C868.7 480 914.3 481 937.2 481.5L960 482L960 541L937.2 541C914.3 541 868.7 541 823 541C777.3 541 731.7 541 686 541C640.3 541 594.7 541 548.8 541C503 541 457 541 411.2 541C365.3 541 319.7 541 274 541C228.3 541 182.7 541 137 541C91.3 541 45.7 541 22.8 541L0 541Z"/></svg>