<svg id="visual" viewBox="0 0 960 540" width="960" height="540" xmlns="http://www.w3.org/2000/svg" xmlns:xlink="http://www.w3.org/1999/xlink" version="1.1"><path d="M0 347L17.8 338.5C35.7 330 71.3 313 106.8 301.5C142.3 290 177.7 284 213.2 283.8C248.7 283.7 284.3 289.3 320 296.2C355.7 303 391.3 311 426.8 313.7C462.3 316.3 497.7 313.7 533.2 314.7C568.7 315.7 604.3 320.3 640 320.3C675.7 320.3 711.3 315.7 746.8 320.3C782.3 325 817.7 339 853.2 340.3C888.7 341.7 924.3 330.3 942.2 324.7L960 319L960 541L942.2 541C924.3 541 888.7 541 853.2 541C817.7 541 782.3 541 746.8 541C711.3 541 675.7 541 640 541C604.3 541 568.7 541 533.2 541C497.7 541 462.3 541 426.8 541C391.3 541 355.7 541 320 541C284.3 541 248.7 541 213.2 541C177.7 541 142.3 541 106.8 541C71.3 541 35.7 541 17.8 541L0 541Z" fill="#fa7268"></path><path d="M0 392L17.8 381.7C35.7 371.3 71.3 350.7 106.8 343C142.3 335.3 177.7 340.7 213.2 343.8C248.7 347 284.3 348 320 355.7C355.7 363.3 391.3 377.7 426.8 374.5C462.3 371.3 497.7 350.7 533.2 339.5C568.7 328.3 604.3 326.7 640 334.8C675.7 343 711.3 361 746.8 369.3C782.3 377.7 817.7 376.3 853.2 368.5C888.7 360.7 924.3 346.3 942.2 339.2L960 332L960 541L942.2 541C924.3 541 888.7 541 853.2 541C817.7 541 782.3 541 746.8 541C711.3 541 675.7 541 640 541C604.3 541 568.7 541 533.2 541C497.7 541 462.3 541 426.8 541C391.3 541 355.7 541 320 541C284.3 541 248.7 541 213.2 541C177.7 541 142.3 541 106.8 541C71.3 541 35.7 541 17.8 541L0 541Z" fill="#ef5f67"></path><path d="M0 376L17.8 377.5C35.7 379 71.3 382 106.8 391.2C142.3 400.3 177.7 415.7 213.2 413.5C248.7 411.3 284.3 391.7 320 381.3C355.7 371 391.3 370 426.8 374.7C462.3 379.3 497.7 389.7 533.2 388.7C568.7 387.7 604.3 375.3 640 371.8C675.7 368.3 711.3 373.7 746.8 375.2C782.3 376.7 817.7 374.3 853.2 380.2C888.7 386 924.3 400 942.2 407L960 414L960 541L942.2 541C924.3 541 888.7 541 853.2 541C817.7 541 782.3 541 746.8 541C711.3 541 675.7 541 640 541C604.3 541 568.7 541 533.2 541C497.7 541 462.3 541 426.8 541C391.3 541 355.7 541 320 541C284.3 541 248.7 541 213.2 541C177.7 541 142.3 541 106.8 541C71.3 541 35.7 541 17.8 541L0 541Z" fill="#e34c67"></path><path d="M0 410L17.8 416.8C35.7 423.7 71.3 437.3 106.8 444.8C142.3 452.3 177.7 453.7 213.2 449C248.7 444.3 284.3 433.7 320 427C355.7 420.3 391.3 417.7 426.8 423.2C462.3 428.7 497.7 442.3 533.2 444C568.7 445.7 604.3 435.3 640 430C675.7 424.7 711.3 424.3 746.8 428C782.3 431.7 817.7 439.3 853.2 439.7C888.7 440 924.3 433 942.2 429.5L960 426L960 541L942.2 541C924.3 541 888.7 541 853.2 541C817.7 541 782.3 541 746.8 541C711.3 541 675.7 541 640 541C604.3 541 568.7 541 533.2 541C497.7 541 462.3 541 426.8 541C391.3 541 355.7 541 320 541C284.3 541 248.7 541 213.2 541C177.7 541 142.3 541 106.8 541C71.3 541 35.7 541 17.8 541L0 541Z" fill="#d53867"></path><path d="M0 488L17.8 483.8C35.7 479.7 71.3 471.3 106.8 468.7C142.3 466 177.7 469 213.2 470.5C248.7 472 284.3 472 320 472.8C355.7 473.7 391.3 475.3 426.8 476C462.3 476.7 497.7 476.3 533.2 476.3C568.7 476.3 604.3 476.7 640 475.5C675.7 474.3 711.3 471.7 746.8 473.5C782.3 475.3 817.7 481.7 853.2 486.7C888.7 491.7 924.3 495.3 942.2 497.2L960 499L960 541L942.2 541C924.3 541 888.7 541 853.2 541C817.7 541 782.3 541 746.8 541C711.3 541 675.7 541 640 541C604.3 541 568.7 541 533.2 541C497.7 541 462.3 541 426.8 541C391.3 541 355.7 541 320 541C284.3 541 248.7 541 213.2 541C177.7 541 142.3 541 106.8 541C71.3 541 35.7 541 17.8 541L0 541Z" fill="#c62368"></path></svg>