<svg id="visual" viewBox="0 0 540 960" width="540" height="960" xmlns="http://www.w3.org/2000/svg" xmlns:xlink="http://www.w3.org/1999/xlink" version="1.1"><path d="M0 659L12.8 644C25.7 629 51.3 599 77 582.7C102.7 566.3 128.3 563.7 154 586.8C179.7 610 205.3 659 231.2 678C257 697 283 686 308.8 681.3C334.7 676.7 360.3 678.3 386 666.3C411.7 654.3 437.3 628.7 463 633.5C488.7 638.3 514.3 673.7 527.2 691.3L540 709L540 961L527.2 961C514.3 961 488.7 961 463 961C437.3 961 411.7 961 386 961C360.3 961 334.7 961 308.8 961C283 961 257 961 231.2 961C205.3 961 179.7 961 154 961C128.3 961 102.7 961 77 961C51.3 961 25.7 961 12.8 961L0 961Z" fill="#fa7268"></path><path d="M0 759L12.8 745.7C25.7 732.3 51.3 705.7 77 693.3C102.7 681 128.3 683 154 683C179.7 683 205.3 681 231.2 691C257 701 283 723 308.8 722.7C334.7 722.3 360.3 699.7 386 693C411.7 686.3 437.3 695.7 463 702.7C488.7 709.7 514.3 714.3 527.2 716.7L540 719L540 961L527.2 961C514.3 961 488.7 961 463 961C437.3 961 411.7 961 386 961C360.3 961 334.7 961 308.8 961C283 961 257 961 231.2 961C205.3 961 179.7 961 154 961C128.3 961 102.7 961 77 961C51.3 961 25.7 961 12.8 961L0 961Z" fill="#ef5f67"></path><path d="M0 746L12.8 745.3C25.7 744.7 51.3 743.3 77 745.5C102.7 747.7 128.3 753.3 154 753.7C179.7 754 205.3 749 231.2 744.3C257 739.7 283 735.3 308.8 732.2C334.7 729 360.3 727 386 732.7C411.7 738.3 437.3 751.7 463 750.2C488.7 748.7 514.3 732.3 527.2 724.2L540 716L540 961L527.2 961C514.3 961 488.7 961 463 961C437.3 961 411.7 961 386 961C360.3 961 334.7 961 308.8 961C283 961 257 961 231.2 961C205.3 961 179.7 961 154 961C128.3 961 102.7 961 77 961C51.3 961 25.7 961 12.8 961L0 961Z" fill="#e34c67"></path><path d="M0 857L12.8 857.3C25.7 857.7 51.3 858.3 77 857.5C102.7 856.7 128.3 854.3 154 840.5C179.7 826.7 205.3 801.3 231.2 801.5C257 801.7 283 827.3 308.8 840.3C334.7 853.3 360.3 853.7 386 846C411.7 838.3 437.3 822.7 463 809.2C488.7 795.7 514.3 784.3 527.2 778.7L540 773L540 961L527.2 961C514.3 961 488.7 961 463 961C437.3 961 411.7 961 386 961C360.3 961 334.7 961 308.8 961C283 961 257 961 231.2 961C205.3 961 179.7 961 154 961C128.3 961 102.7 961 77 961C51.3 961 25.7 961 12.8 961L0 961Z" fill="#d53867"></path><path d="M0 845L12.8 851.2C25.7 857.3 51.3 869.7 77 872C102.7 874.3 128.3 866.7 154 866.7C179.7 866.7 205.3 874.3 231.2 883.2C257 892 283 902 308.8 900.5C334.7 899 360.3 886 386 876C411.7 866 437.3 859 463 856.5C488.7 854 514.3 856 527.2 857L540 858L540 961L527.2 961C514.3 961 488.7 961 463 961C437.3 961 411.7 961 386 961C360.3 961 334.7 961 308.8 961C283 961 257 961 231.2 961C205.3 961 179.7 961 154 961C128.3 961 102.7 961 77 961C51.3 961 25.7 961 12.8 961L0 961Z" fill="#c62368"></path></svg>